<?xml version="1.0" encoding="UTF-8" standalone="no"?>
<!-- Created with Inkscape (http://www.inkscape.org/) -->

<svg
   xmlns:dc="http://purl.org/dc/elements/1.1/"
   xmlns:cc="http://creativecommons.org/ns#"
   xmlns:rdf="http://www.w3.org/1999/02/22-rdf-syntax-ns#"
   xmlns:svg="http://www.w3.org/2000/svg"
   xmlns="http://www.w3.org/2000/svg"
   xmlns:sodipodi="http://sodipodi.sourceforge.net/DTD/sodipodi-0.dtd"
   xmlns:inkscape="http://www.inkscape.org/namespaces/inkscape"
   width="24"
   height="24"
   id="svg2"
   version="1.1"
   inkscape:version="0.48.4 r9939"
   sodipodi:docname="ic_notify_new_message.svg">
  <defs
     id="defs4" />
  <sodipodi:namedview
     id="base"
     pagecolor="#424242"
     bordercolor="#666666"
     borderopacity="1.0"
     inkscape:pageopacity="0"
     inkscape:pageshadow="2"
     inkscape:zoom="11.2"
     inkscape:cx="18.631505"
     inkscape:cy="12.662531"
     inkscape:document-units="px"
     inkscape:current-layer="layer1"
     showgrid="false"
     showguides="true"
     inkscape:guide-bbox="true"
     inkscape:window-width="978"
     inkscape:window-height="814"
     inkscape:window-x="737"
     inkscape:window-y="240"
     inkscape:window-maximized="0">
    <sodipodi:guide
       orientation="1,0"
       position="1,23.044105"
       id="guide2987" />
    <sodipodi:guide
       orientation="1,0"
       position="23,18.687822"
       id="guide2985" />
    <sodipodi:guide
       orientation="0,1"
       position="19.382302,23"
       id="guide2988" />
    <sodipodi:guide
       orientation="0,1"
       position="14.015867,1"
       id="guide2990" />
  </sodipodi:namedview>
  <metadata
     id="metadata7">
    <rdf:RDF>
      <cc:Work
         rdf:about="">
        <dc:format>image/svg+xml</dc:format>
        <dc:type
           rdf:resource="http://purl.org/dc/dcmitype/StillImage" />
        <dc:title />
      </cc:Work>
    </rdf:RDF>
  </metadata>
  <g
     inkscape:label="Layer 1"
     inkscape:groupmode="layer"
     id="layer1"
     transform="translate(0,-1028.3622)">
    <path
       style="fill:#ffffff;fill-opacity:1;stroke:none"
       d="M 5.59375 1 C 3.0453675 1 1 3.0453675 1 5.59375 L 1 18.40625 C 1 20.954633 3.0453675 23 5.59375 23 L 18.40625 23 C 20.954633 23 23 20.954633 23 18.40625 L 23 5.59375 C 23 3.0453675 20.954633 1 18.40625 1 L 5.59375 1 z M 5.15625 3.375 A 1.750175 1.750175 0 0 1 5.3125 3.375 A 1.750175 1.750175 0 0 1 6.4375 3.75 L 15.34375 10.65625 A 1.750175 1.750175 0 0 1 15.3125 13.4375 L 6.4375 20.28125 A 1.750175 1.750175 0 1 1 4.28125 17.53125 L 11.375 12.03125 L 4.28125 6.53125 A 1.750175 1.750175 0 0 1 5.15625 3.375 z M 13.5 17.125 A 1.50015 1.50015 0 0 1 13.65625 17.125 L 18.75 17.125 A 1.50015 1.50015 0 1 1 18.75 20.125 L 13.65625 20.125 A 1.5020331 1.5020331 0 1 1 13.5 17.125 z "
       transform="translate(0,1028.3622)"
       id="rect2992" />
  </g>
</svg>
