<?xml version="1.0" encoding="UTF-8" standalone="no"?>
<!-- Created with Inkscape (http://www.inkscape.org/) -->

<svg
   xmlns:dc="http://purl.org/dc/elements/1.1/"
   xmlns:cc="http://creativecommons.org/ns#"
   xmlns:rdf="http://www.w3.org/1999/02/22-rdf-syntax-ns#"
   xmlns:svg="http://www.w3.org/2000/svg"
   xmlns="http://www.w3.org/2000/svg"
   xmlns:sodipodi="http://sodipodi.sourceforge.net/DTD/sodipodi-0.dtd"
   xmlns:inkscape="http://www.inkscape.org/namespaces/inkscape"
   id="svg2"
   version="1.1"
   inkscape:version="0.91 r13725"
   width="192"
   height="192"
   sodipodi:docname="ic_roundapp.svg">
  <metadata
     id="metadata8">
    <rdf:RDF>
      <cc:Work
         rdf:about="">
        <dc:format>image/svg+xml</dc:format>
        <dc:type
           rdf:resource="http://purl.org/dc/dcmitype/StillImage" />
        <dc:title />
      </cc:Work>
    </rdf:RDF>
  </metadata>
  <defs
     id="defs6">
    <filter
       inkscape:collect="always"
       style="color-interpolation-filters:sRGB"
       id="filter4294"
       x="-0.024"
       width="1.048"
       y="-0.024"
       height="1.048">
      <feGaussianBlur
         inkscape:collect="always"
         stdDeviation="1.76"
         id="feGaussianBlur4296" />
    </filter>
    <clipPath
       clipPathUnits="userSpaceOnUse"
       id="clipPath4151">
      <circle
         r="88"
         cy="96"
         cx="93.75"
         id="circle4153"
         style="opacity:1;fill:#d23b22;fill-opacity:1;stroke:none;stroke-width:4;stroke-linecap:square;stroke-linejoin:miter;stroke-miterlimit:4;stroke-dasharray:none;stroke-opacity:1" />
    </clipPath>
  </defs>
  <sodipodi:namedview
     pagecolor="#ffffff"
     bordercolor="#666666"
     borderopacity="1"
     objecttolerance="10"
     gridtolerance="10"
     guidetolerance="10"
     inkscape:pageopacity="0"
     inkscape:pageshadow="2"
     inkscape:window-width="1973"
     inkscape:window-height="1169"
     id="namedview4"
     showgrid="false"
     inkscape:zoom="11.313708"
     inkscape:cx="134.44944"
     inkscape:cy="58.137177"
     inkscape:window-x="1032"
     inkscape:window-y="104"
     inkscape:window-maximized="0"
     inkscape:current-layer="svg2"
     showguides="true"
     inkscape:guide-bbox="true">
    <sodipodi:guide
       position="4,0"
       orientation="1,0"
       id="guide4139"
       inkscape:label=""
       inkscape:color="rgb(0,0,255)" />
    <sodipodi:guide
       position="0,4"
       orientation="0,1"
       id="guide4141"
       inkscape:label=""
       inkscape:color="rgb(0,0,255)" />
    <sodipodi:guide
       position="188,0"
       orientation="1,0"
       id="guide4143"
       inkscape:label=""
       inkscape:color="rgb(0,0,255)" />
    <sodipodi:guide
       position="0,188"
       orientation="0,1"
       id="guide4145"
       inkscape:label=""
       inkscape:color="rgb(0,0,255)" />
    <sodipodi:guide
       position="96,96"
       orientation="0,1"
       id="guide4146"
       inkscape:label=""
       inkscape:color="rgb(0,0,255)" />
  </sodipodi:namedview>
  <circle
     r="88"
     cy="99.375"
     cx="96"
     id="circle4272"
     style="opacity:0.3;fill:#000000;fill-opacity:1;stroke:none;stroke-width:4;stroke-linecap:square;stroke-linejoin:miter;stroke-miterlimit:4;stroke-dasharray:none;stroke-opacity:1;filter:url(#filter4294)" />
  <circle
     style="opacity:1;fill:#d23b22;fill-opacity:1;stroke:none;stroke-width:4;stroke-linecap:square;stroke-linejoin:miter;stroke-miterlimit:4;stroke-dasharray:none;stroke-opacity:1"
     id="path4239"
     cx="96"
     cy="96"
     r="88" />
  <path
     style="fill:#b83621;fill-opacity:1;stroke:none;stroke-width:1px;stroke-linecap:butt;stroke-linejoin:miter;stroke-opacity:1"
     d="M 102.60686,94.500084 87.969263,94.981727 50.647005,142.38826 101.89537,189.5042 171.0579,176.87463 c 3.51135,-0.6412 5.63113,1.35222 4.61157,-4.73876 l -3.625,-20.9491 -32.05268,-31.17364 -4.54635,4.45085 z"
     id="path3761"
     inkscape:connector-curvature="0"
     sodipodi:nodetypes="ccccsscccc"
     clip-path="url(#clipPath4151)"
     transform="translate(2.25,0)" />
  <path
     style="opacity:0.209;fill:#000000;fill-opacity:1;stroke:none;stroke-width:4;stroke-linecap:square;stroke-linejoin:miter;stroke-miterlimit:4;stroke-dasharray:none;stroke-opacity:1"
     d="M 183.97852 95.414062 A 88 88 0 0 1 96 183 A 88 88 0 0 1 8.0214844 95.585938 A 88 88 0 0 0 8 96 A 88 88 0 0 0 96 184 A 88 88 0 0 0 184 96 A 88 88 0 0 0 183.97852 95.414062 z "
     id="circle4155" />
  <rect
     style="fill:#ffffff;fill-opacity:1;stroke:none;stroke-width:9.72025108;stroke-linecap:square;stroke-linejoin:miter;stroke-miterlimit:4;stroke-dasharray:none;stroke-opacity:1"
     id="rect3759"
     width="44"
     height="14"
     x="98.25"
     y="120.12132"
     ry="0"
     rx="0" />
  <path
     style="opacity:1;fill:#ffffff;fill-opacity:1;stroke:none;stroke-width:4;stroke-linecap:square;stroke-linejoin:miter;stroke-miterlimit:4;stroke-dasharray:none;stroke-opacity:1"
     d="m 53.390625,46.837891 -10.849609,11.710937 39.162109,36.285156 -39.183594,36.304686 10.84961,11.71094 51.849609,-47.992188 -0.0273,-0.02539 0.006,-0.0039 z"
     id="rect4207"
     inkscape:connector-curvature="0"
     sodipodi:nodetypes="ccccccccc" />
  <path
     style="opacity:0.2;fill:#ffffff;fill-opacity:1;stroke:none;stroke-width:4;stroke-linecap:square;stroke-linejoin:miter;stroke-miterlimit:4;stroke-dasharray:none;stroke-opacity:1"
     d="M 96 8 A 88 88 0 0 0 8 96 A 88 88 0 0 0 8.0214844 96.585938 A 88 88 0 0 1 96 9 A 88 88 0 0 1 183.97852 96.414062 A 88 88 0 0 0 184 96 A 88 88 0 0 0 96 8 z "
     id="circle4160" />
</svg>
