<?xml version="1.0" encoding="UTF-8" standalone="no"?>
<!-- Created with Inkscape (http://www.inkscape.org/) -->

<svg
   xmlns:dc="http://purl.org/dc/elements/1.1/"
   xmlns:cc="http://creativecommons.org/ns#"
   xmlns:rdf="http://www.w3.org/1999/02/22-rdf-syntax-ns#"
   xmlns:svg="http://www.w3.org/2000/svg"
   xmlns="http://www.w3.org/2000/svg"
   xmlns:sodipodi="http://sodipodi.sourceforge.net/DTD/sodipodi-0.dtd"
   xmlns:inkscape="http://www.inkscape.org/namespaces/inkscape"
   width="115.84429mm"
   height="43.382984mm"
   viewBox="0 0 115.84429 43.382984"
   version="1.1"
   id="svg8"
   sodipodi:docname="pr0mium.svg"
   inkscape:version="0.92.2 (5c3e80d, 2017-08-06)">
  <defs
     id="defs2" />
  <sodipodi:namedview
     id="base"
     pagecolor="#ffffff"
     bordercolor="#666666"
     borderopacity="1.0"
     inkscape:pageopacity="0.0"
     inkscape:pageshadow="2"
     inkscape:zoom="1.3304047"
     inkscape:cx="341.18932"
     inkscape:cy="95.559814"
     inkscape:document-units="mm"
     inkscape:current-layer="layer1"
     showgrid="false"
     inkscape:window-width="1663"
     inkscape:window-height="1026"
     inkscape:window-x="1673"
     inkscape:window-y="110"
     inkscape:window-maximized="0"
     fit-margin-top="0"
     fit-margin-left="0"
     fit-margin-right="0"
     fit-margin-bottom="0" />
  <metadata
     id="metadata5">
    <rdf:RDF>
      <cc:Work
         rdf:about="">
        <dc:format>image/svg+xml</dc:format>
        <dc:type
           rdf:resource="http://purl.org/dc/dcmitype/StillImage" />
        <dc:title></dc:title>
      </cc:Work>
    </rdf:RDF>
  </metadata>
  <g
     inkscape:label="Layer 1"
     inkscape:groupmode="layer"
     id="layer1"
     transform="translate(-18.51235,-42.826458)">
    <rect
       style="opacity:1;fill:#222222;fill-opacity:1;stroke:none;stroke-width:1.29716742;stroke-linecap:square;stroke-linejoin:miter;stroke-miterlimit:4;stroke-dasharray:none;stroke-opacity:1"
       id="rect4504"
       width="115.84429"
       height="43.382984"
       x="18.51235"
       y="42.826458"
       rx="0"
       ry="0" />
    <path
       sodipodi:type="star"
       style="opacity:1;fill:#f7c516;fill-opacity:1;stroke:none;stroke-width:0.94604766;stroke-linecap:square;stroke-linejoin:miter;stroke-miterlimit:4;stroke-dasharray:none;stroke-opacity:1"
       id="path4540"
       sodipodi:sides="5"
       sodipodi:cx="50.046295"
       sodipodi:cy="64.521095"
       sodipodi:r1="18.751354"
       sodipodi:r2="8.3105268"
       sodipodi:arg1="-1.5707963"
       sodipodi:arg2="-0.9424778"
       inkscape:flatsided="false"
       inkscape:rounded="0"
       inkscape:randomized="0"
       d="m 50.046296,45.769741 4.884804,12.027997 12.948793,0.928871 -9.929817,8.36258 3.117988,12.602071 -11.021769,-6.859638 -11.02177,6.859637 3.117989,-12.60207 -9.929816,-8.362581 12.948792,-0.92887 z"
       inkscape:transform-center-y="-2.0031209" />
    <path
       inkscape:connector-curvature="0"
       style="opacity:1;fill:#fcce2a;fill-opacity:1;stroke:none;stroke-width:0.94604766;stroke-linecap:square;stroke-linejoin:miter;stroke-miterlimit:4;stroke-dasharray:none;stroke-opacity:1"
       d="m 50.04652,45.769585 -4.884986,12.027926 -12.949028,0.928955 9.929804,8.362912 -3.117615,12.602115 11.021825,-6.85977 0.08223,0.05128 V 45.971914 Z"
       id="path4542" />
    <g
       aria-label="pr0mium"
       style="font-style:normal;font-variant:normal;font-weight:normal;font-stretch:normal;font-size:11.03095245px;line-height:125%;font-family:RobotoBold;-inkscape-font-specification:RobotoBold;letter-spacing:0px;word-spacing:0px;fill:#ffffff;fill-opacity:1;stroke:none;stroke-width:0.27577385px;stroke-linecap:butt;stroke-linejoin:miter;stroke-opacity:1"
       id="text4557">
      <path
         d="m 79.020564,64.079522 q 0,1.346552 -0.614028,2.159869 -0.608641,0.807931 -1.648179,0.807931 -0.883338,0 -1.427345,-0.614027 v 2.746965 h -1.556614 v -8.068538 h 1.443503 l 0.05386,0.570938 q 0.565551,-0.678662 1.47582,-0.678662 1.077242,0 1.675111,0.797158 0.597869,0.797159 0.597869,2.197573 z m -1.556614,-0.11311 q 0,-0.813318 -0.290855,-1.254987 -0.285469,-0.441669 -0.834862,-0.441669 -0.732525,0 -1.007221,0.560166 v 2.38609 q 0.285469,0.576324 1.017993,0.576324 1.114945,0 1.114945,-1.825924 z"
         style="font-style:normal;font-variant:normal;font-weight:normal;font-stretch:normal;font-family:RobotoBold;-inkscape-font-specification:RobotoBold;fill:#ffffff;stroke-width:0.27577385px"
         id="path4772" />
      <path
         d="m 83.254123,62.571384 q -0.317787,-0.04309 -0.560166,-0.04309 -0.883338,0 -1.158034,0.597869 v 3.813435 h -1.556614 v -5.827876 h 1.470434 l 0.04309,0.694821 q 0.4686,-0.802545 1.298076,-0.802545 0.258538,0 0.484759,0.07002 z"
         style="font-style:normal;font-variant:normal;font-weight:normal;font-stretch:normal;font-family:RobotoBold;-inkscape-font-specification:RobotoBold;fill:#ffffff;stroke-width:0.27577385px"
         id="path4774" />
      <path
         d="m 89.22204,63.697101 q 0,1.626635 -0.673276,2.488428 -0.673276,0.861793 -1.971352,0.861793 -1.281917,0 -1.960579,-0.845634 -0.678662,-0.845635 -0.694821,-2.423794 v -1.443503 q 0,-1.642793 0.678662,-2.493814 0.684048,-0.851021 1.965966,-0.851021 1.281917,0 1.960579,0.845635 0.678662,0.840248 0.694821,2.418407 z m -1.556614,-1.583545 q 0,-0.974903 -0.26931,-1.416572 -0.263925,-0.447055 -0.829476,-0.447055 -0.549394,0 -0.813318,0.42551 -0.258538,0.420124 -0.274696,1.319621 v 1.906717 q 0,0.958745 0.258538,1.427345 0.263924,0.463214 0.840248,0.463214 0.570938,0 0.82409,-0.447055 0.253152,-0.447055 0.263924,-1.368097 z"
         style="font-style:normal;font-variant:normal;font-weight:normal;font-stretch:normal;font-family:RobotoBold;-inkscape-font-specification:RobotoBold;fill:#ffffff;stroke-width:0.27577385px"
         id="path4776" />
      <path
         d="m 91.802034,61.111722 0.04848,0.651731 q 0.619414,-0.759455 1.675111,-0.759455 1.125717,0 1.545841,0.888724 0.614028,-0.888724 1.750517,-0.888724 0.947973,0 1.411187,0.554779 0.463213,0.549393 0.463213,1.658952 v 3.721869 h -1.562 v -3.716483 q 0,-0.495531 -0.193903,-0.721752 -0.193904,-0.231607 -0.684048,-0.231607 -0.700207,0 -0.969518,0.66789 l 0.0054,4.001952 h -1.556613 v -3.711097 q 0,-0.506303 -0.19929,-0.732524 -0.19929,-0.226221 -0.678662,-0.226221 -0.662504,0 -0.958745,0.549394 v 4.120448 h -1.556614 v -5.827876 z"
         style="font-style:normal;font-variant:normal;font-weight:normal;font-stretch:normal;font-family:RobotoBold;-inkscape-font-specification:RobotoBold;fill:#ffffff;stroke-width:0.27577385px"
         id="path4778" />
      <path
         d="m 101.52952,66.939598 h -1.561996 v -5.827876 h 1.561996 z m -1.653561,-7.336014 q 0,-0.350104 0.231611,-0.576324 0.23699,-0.226221 0.64095,-0.226221 0.39858,0 0.63558,0.226221 0.23699,0.22622 0.23699,0.576324 0,0.355489 -0.24238,0.58171 -0.23699,0.226221 -0.63019,0.226221 -0.39319,0 -0.63557,-0.226221 -0.236991,-0.226221 -0.236991,-0.58171 z"
         style="font-style:normal;font-variant:normal;font-weight:normal;font-stretch:normal;font-family:RobotoBold;-inkscape-font-specification:RobotoBold;fill:#ffffff;stroke-width:0.27577385px"
         id="path4780" />
      <path
         d="m 106.30709,66.347115 q -0.57632,0.700207 -1.59432,0.700207 -0.9372,0 -1.43273,-0.53862 -0.49014,-0.538621 -0.50092,-1.578159 v -3.818821 h 1.55662 v 3.764959 q 0,0.910269 0.82947,0.910269 0.79178,0 1.08802,-0.549393 v -4.125835 h 1.562 v 5.827876 h -1.46505 z"
         style="font-style:normal;font-variant:normal;font-weight:normal;font-stretch:normal;font-family:RobotoBold;-inkscape-font-specification:RobotoBold;fill:#ffffff;stroke-width:0.27577385px"
         id="path4782" />
      <path
         d="m 110.45986,61.111722 0.0485,0.651731 q 0.61942,-0.759455 1.67511,-0.759455 1.12572,0 1.54584,0.888724 0.61403,-0.888724 1.75052,-0.888724 0.94797,0 1.41119,0.554779 0.46321,0.549393 0.46321,1.658952 v 3.721869 h -1.562 v -3.716483 q 0,-0.495531 -0.1939,-0.721752 -0.19391,-0.231607 -0.68405,-0.231607 -0.70021,0 -0.96952,0.66789 l 0.005,4.001952 h -1.55662 v -3.711097 q 0,-0.506303 -0.19929,-0.732524 -0.19929,-0.226221 -0.67866,-0.226221 -0.6625,0 -0.95874,0.549394 v 4.120448 h -1.55662 v -5.827876 z"
         style="font-style:normal;font-variant:normal;font-weight:normal;font-stretch:normal;font-family:RobotoBold;-inkscape-font-specification:RobotoBold;fill:#ffffff;stroke-width:0.27577385px"
         id="path4784" />
    </g>
    <g
       aria-label="WERBEFREI"
       style="font-style:normal;font-variant:normal;font-weight:normal;font-stretch:normal;font-size:4.07552481px;line-height:125%;font-family:RobotoBold;-inkscape-font-specification:RobotoBold;letter-spacing:0px;word-spacing:0px;fill:#ffffff;fill-opacity:1;stroke:none;stroke-width:0.10188813px;stroke-linecap:butt;stroke-linejoin:miter;stroke-opacity:1"
       id="text4561">
      <path
         d="m 79.467214,70.90245 0.39004,-2.061643 h 0.595011 l -0.642771,2.897444 h -0.60098 l -0.471631,-1.938263 -0.471631,1.938263 h -0.60098 l -0.642771,-2.897444 h 0.595011 l 0.39203,2.057663 0.477601,-2.057663 h 0.50546 z"
         style="font-style:normal;font-variant:normal;font-weight:normal;font-stretch:normal;font-family:RobotoBold;-inkscape-font-specification:RobotoBold;fill:#ffffff;stroke-width:0.10188813px"
         id="path4753" />
      <path
         d="m 82.519877,70.482559 h -1.146241 v 0.776101 h 1.345242 v 0.479591 h -1.942243 v -2.897444 h 1.938263 v 0.483571 h -1.341262 v 0.690531 h 1.146241 z"
         style="font-style:normal;font-variant:normal;font-weight:normal;font-stretch:normal;font-family:RobotoBold;-inkscape-font-specification:RobotoBold;fill:#ffffff;stroke-width:0.10188813px"
         id="path4755" />
      <path
         d="m 84.141729,70.677579 h -0.47561 v 1.060672 h -0.597001 v -2.897444 h 1.076591 q 0.513421,0 0.792021,0.228851 0.2786,0.22885 0.2786,0.64675 0,0.296511 -0.12935,0.495511 -0.12736,0.19701 -0.38805,0.31442 l 0.626851,1.184052 v 0.02786 H 84.685 Z m -0.47561,-0.48357 h 0.48158 q 0.22487,0 0.348251,-0.11343 0.12338,-0.11542 0.12338,-0.316411 0,-0.20497 -0.11741,-0.32238 -0.11542,-0.11741 -0.356211,-0.11741 h -0.47959 z"
         style="font-style:normal;font-variant:normal;font-weight:normal;font-stretch:normal;font-family:RobotoBold;-inkscape-font-specification:RobotoBold;fill:#ffffff;stroke-width:0.10188813px"
         id="path4757" />
      <path
         d="m 85.672041,71.738251 v -2.897444 h 1.014901 q 0.527351,0 0.799981,0.202981 0.27263,0.20099 0.27263,0.59103 0,0.212931 -0.10945,0.376111 -0.10945,0.16119 -0.30447,0.23681 0.22288,0.05572 0.35024,0.22487 0.12935,0.16915 0.12935,0.413921 0,0.4179 -0.26666,0.63282 -0.26666,0.214921 -0.760181,0.218901 z m 0.597001,-1.261662 v 0.782071 h 0.51143 q 0.21094,0 0.328351,-0.0995 0.1194,-0.10149 0.1194,-0.2786 0,-0.398001 -0.411931,-0.403971 z m 0,-0.42188 h 0.44178 q 0.451731,-0.008 0.451731,-0.360191 0,-0.19701 -0.115421,-0.28258 -0.11343,-0.08756 -0.36019,-0.08756 h -0.4179 z"
         style="font-style:normal;font-variant:normal;font-weight:normal;font-stretch:normal;font-family:RobotoBold;-inkscape-font-specification:RobotoBold;fill:#ffffff;stroke-width:0.10188813px"
         id="path4759" />
      <path
         d="m 90.018206,70.482559 h -1.146241 v 0.776101 h 1.345242 v 0.479591 h -1.942243 v -2.897444 h 1.938263 v 0.483571 h -1.341262 v 0.690531 h 1.146241 z"
         style="font-style:normal;font-variant:normal;font-weight:normal;font-stretch:normal;font-family:RobotoBold;-inkscape-font-specification:RobotoBold;fill:#ffffff;stroke-width:0.10188813px"
         id="path4761" />
      <path
         d="m 92.310689,70.554199 h -1.146242 v 1.184052 h -0.597 v -2.897444 h 1.886522 v 0.483571 h -1.289522 v 0.748241 h 1.146242 z"
         style="font-style:normal;font-variant:normal;font-weight:normal;font-stretch:normal;font-family:RobotoBold;-inkscape-font-specification:RobotoBold;fill:#ffffff;stroke-width:0.10188813px"
         id="path4763" />
      <path
         d="M 93.876821,70.677579 H 93.40121 v 1.060672 h -0.597 v -2.897444 h 1.076591 q 0.513421,0 0.792021,0.228851 0.2786,0.22885 0.2786,0.64675 0,0.296511 -0.12935,0.495511 -0.12736,0.19701 -0.38805,0.31442 l 0.62685,1.184052 v 0.02786 h -0.64078 z m -0.475611,-0.48357 h 0.481581 q 0.22487,0 0.34825,-0.11343 0.12338,-0.11542 0.12338,-0.316411 0,-0.20497 -0.11741,-0.32238 -0.11542,-0.11741 -0.35621,-0.11741 H 93.40121 Z"
         style="font-style:normal;font-variant:normal;font-weight:normal;font-stretch:normal;font-family:RobotoBold;-inkscape-font-specification:RobotoBold;fill:#ffffff;stroke-width:0.10188813px"
         id="path4765" />
      <path
         d="m 97.150374,70.482559 h -1.146241 v 0.776101 h 1.345241 v 0.479591 h -1.942242 v -2.897444 h 1.938262 v 0.483571 h -1.341261 v 0.690531 h 1.146241 z"
         style="font-style:normal;font-variant:normal;font-weight:normal;font-stretch:normal;font-family:RobotoBold;-inkscape-font-specification:RobotoBold;fill:#ffffff;stroke-width:0.10188813px"
         id="path4767" />
      <path
         d="m 98.334425,71.738251 h -0.597 v -2.897444 h 0.597 z"
         style="font-style:normal;font-variant:normal;font-weight:normal;font-stretch:normal;font-family:RobotoBold;-inkscape-font-specification:RobotoBold;fill:#ffffff;stroke-width:0.10188813px"
         id="path4769" />
    </g>
    <flowRoot
       xml:space="preserve"
       id="flowRoot4563"
       style="font-style:normal;font-variant:normal;font-weight:normal;font-stretch:normal;font-size:40px;line-height:125%;font-family:'Liberation Sans';-inkscape-font-specification:'Liberation Sans';letter-spacing:0px;word-spacing:0px;fill:#000000;fill-opacity:1;stroke:none;stroke-width:1px;stroke-linecap:butt;stroke-linejoin:miter;stroke-opacity:1"
       transform="scale(0.26458333)"><flowRegion
         id="flowRegion4565"><rect
           id="rect4567"
           width="347"
           height="180"
           x="214"
           y="164.51968" /></flowRegion><flowPara
         id="flowPara4569"></flowPara></flowRoot>  </g>
</svg>
